<svg width="1914" height="492" viewBox="0 0 1914 492" fill="none" xmlns="http://www.w3.org/2000/svg">
<path d="M515 341C515 426.052 446.052 481 361 481C275.948 481 207 426.052 207 341C207 255.948 275.948 187 361 187C446.052 187 515 255.948 515 341Z" fill="white"/>
<circle cx="154" cy="209" r="154" fill="white"/>
<circle cx="548" cy="363" r="128" fill="white"/>
<circle cx="1726" cy="303" r="188" fill="white"/>
<circle cx="1465.5" cy="350.5" r="140.5" fill="white"/>
<circle cx="905.5" cy="340.5" r="76.5" fill="white"/>
<circle cx="1065" cy="326" r="116" fill="white"/>
<circle cx="1249.5" cy="295.5" r="98.5" fill="white"/>
<circle cx="750.5" cy="362.5" r="98.5" fill="white"/>
<path d="M1913.5 130.5C1913.5 198.707 1913.5 259 1913.5 259C1845.29 259 1790 203.707 1790 135.5C1790 67.2928 1845.29 12 1913.5 12C1913.5 12 1913.5 62.2928 1913.5 130.5Z" fill="white"/>
<path d="M106 97.5C106 151.348 58.5424 195 0.000211716 195C0.000211716 195 0.00012207 155.848 0.00012207 102C0.00012207 48.1522 0.000211716 0 0.000211716 0C58.5424 0 106 43.6522 106 97.5Z" fill="white"/>
<rect y="209" width="207" height="282" fill="white"/>
<rect x="1707" y="139" width="207" height="353" fill="white"/>
<rect y="346" width="1914" height="145" fill="white"/>
</svg>
