<svg xmlns="http://www.w3.org/2000/svg" width="1914" height="492" fill="none"><path fill="#fff" d="M540 364c0 85.052-68.948 113-154 113s-154-27.948-154-113 68.948-154 154-154 154 68.948 154 154"/><circle cx="138.5" cy="250.5" r="138.5" fill="#fff"/><circle cx="548" cy="363" r="128" fill="#fff"/><circle cx="1725.22" cy="303" r="188" fill="#fff"/><circle cx="1465.5" cy="350.5" r="140.5" fill="#fff"/><circle cx="905.5" cy="340.5" r="76.5" fill="#fff"/><circle cx="1065" cy="326" r="116" fill="#fff"/><circle cx="1249.5" cy="295.5" r="98.5" fill="#fff"/><circle cx="750.5" cy="362.5" r="98.5" fill="#fff"/><path fill="#fff" d="M1913.5 130.5V259c-68.21 0-123.5-55.293-123.5-123.5S1845.29 12 1913.5 12zM373 261.915c0 40.593-36.265 0-81 0s-81 40.593-81 0 36.265-73.5 81-73.5 81 32.907 81 73.5M106 97.5C106 151.348 58.542 195 0 195V0c58.542 0 106 43.652 106 97.5"/><path fill="#fff" d="M0 183h207v308H0zM1707 139h207v353h-207z"/><path fill="#fff" d="M0 346h1914v145H0z"/><path fill="#FF6467" d="m382.946 371.42-54.785-36.952q-6.555-4.422-9.798-11.339-3.198-6.926-2.765-14.466.425-7.584 4.827-13.996 4.51-6.573 11.303-9.745 6.828-3.225 14.323-2.784 7.539.433 14.175 4.793l7.213 4.71 4.923-7.07q4.564-6.535 11.347-9.753 6.784-3.217 14.279-2.775 7.53.388 14.175 4.792 6.483 4.296 9.718 11.169 3.227 6.828 2.81 14.457-.37 7.62-4.792 14.175zM65.333 159.231 41.651 97.538q-2.833-7.381-1.522-14.908 1.352-7.508 6.031-13.436 4.698-5.969 11.983-8.696 7.464-2.796 14.848-1.5 7.443 1.275 13.33 5.935 5.926 4.68 8.862 12.056l3.207 7.996 8.087-2.967q7.488-2.736 14.89-1.481t13.288 5.916q5.946 4.638 8.863 12.056 2.847 7.239 1.554 14.724-1.274 7.443-5.99 13.454-4.674 6.028-12.056 8.862zM1851.82 321.805l-62.49-21.514q-7.47-2.574-12.39-8.417-4.89-5.862-6.42-13.256c-1.03-4.957-.69-9.88 1.04-14.769q2.655-7.517 8.4-12.338 5.76-4.884 13.11-6.397c4.93-1.022 9.91-.702 14.93.961l8.19 2.683 2.92-8.103c1.82-4.997 4.63-9.116 8.44-12.358s8.17-5.368 13.07-6.376q7.38-1.575 14.94.96c4.91 1.648 9.01 4.405 12.28 8.273q4.875 5.76 6.45 13.237 1.62 7.456-.96 14.932zM1482.37 160.722l-33.04-57.229c-2.64-4.565-3.91-9.394-3.84-14.486.11-5.085 1.4-9.823 3.86-14.214q3.705-6.63 10.47-10.464 6.945-3.93 14.43-3.803 7.56.092 14.1 3.776c4.39 2.463 7.94 5.97 10.64 10.521l4.42 7.396 7.52-4.196c4.65-2.583 9.47-3.847 14.47-3.792 5.01.055 9.69 1.31 14.05 3.765 4.4 2.433 7.95 5.94 10.64 10.521q3.945 6.705 3.84 14.299-.09 7.551-3.81 14.226c-2.45 4.457-5.95 8.003-10.52 10.639zM1072.5 411.129l-40.68-52.074q-4.875-6.231-5.82-13.812c-.6-5.05.01-9.921 1.84-14.612 1.83-4.721 4.8-8.661 8.92-11.819 4.21-3.238 8.8-5.163 13.76-5.775 4.99-.639 9.82-.046 14.48 1.778q7.035 2.742 12 8.938l5.4 6.709 6.87-5.202c4.24-3.204 8.84-5.128 13.81-5.77q7.44-.963 14.43 1.773 7.05 2.696 12 8.938c3.23 4.06 5.16 8.602 5.8 13.626.63 4.993.04 9.866-1.8 14.617q-2.7 7.132-8.94 12z"/><circle cx="546.928" cy="178.5" r="12.448" fill="#fff"/><circle cx="650.562" cy="91" r="29.875" fill="#fff"/><circle cx="723.452" cy="213.61" r="26.39" fill="#fff"/><circle cx="918.075" cy="120.75" r="15.685" fill="#fff"/><circle cx="981.545" cy="199.75" r="15.685" fill="#fff"/><circle cx="1368.31" cy="217.75" r="15.685" fill="#fff"/><circle cx="1670" cy="95" r="8.963" fill="#fff"/><circle cx="1546.57" cy="161.5" r="14.44" fill="#fff"/><circle cx="1343.77" cy="104" r="8.963" fill="#fff"/><circle cx="1232.2" cy="135.5" r="31.369" fill="#fff"/><circle cx="159.702" cy="26.963" r="8.963" fill="#fff"/></svg>